<?xml version="1.0" encoding="utf-8"?>
<!-- Generator: Adobe Illustrator 22.0.0, SVG Export Plug-In . SVG Version: 6.00 Build 0)  -->
<svg version="1.1" xmlns="http://www.w3.org/2000/svg" xmlns:xlink="http://www.w3.org/1999/xlink" x="0px" y="0px"
	 viewBox="0 0 512 512" style="enable-background:new 0 0 512 512;" xml:space="preserve">
<style type="text/css">
	.st0{fill:#EFEFEF;}
	.st1{fill:#EDEDED;}
	.st2{fill:#E1902B;}
	.st3{fill:#827382;}
	.st4{fill:#98CDE6;}
	.st5{clip-path:url(#SVGID_2_);fill:#43B06D;}
	.st6{clip-path:url(#SVGID_2_);fill:#4D917B;}
	.st7{fill:#FFDBC5;}
	.st8{fill:#E8B494;}
	.st9{fill:#DB4646;}
	.st10{fill:#E7AD84;}
	.st11{fill:#9EC853;}
	.st12{fill:#EBB290;}
	.st13{fill:#2961A5;}
	.st14{fill:#D49670;}
	.st15{fill:#4D917B;}
	.st16{fill:#78BEDE;}
	.st17{fill:#D4CDC1;}
	.st18{fill:#A18FA1;}
	.st19{fill:#3D2A3D;}
	.st20{fill:#FF826E;}
	.st21{fill:#E6A585;}
	.st22{fill:#142A7A;}
	.st23{fill:#FFD66C;}
	.st24{fill:#00D3D5;}
	.st25{fill:#B9EAF0;}
	.st26{fill:#EDB87B;}
	.st27{clip-path:url(#SVGID_4_);}
	.st28{fill:#D9904C;}
	.st29{fill:#F7B58D;}
	.st30{fill:#F7C8AB;}
	.st31{fill:#BABABA;}
	.st32{fill:#163A63;}
	.st33{fill:#F5BB47;}
	.st34{fill:#FFE999;}
	.st35{clip-path:url(#SVGID_6_);}
	.st36{fill:#B3B3B3;}
	.st37{fill:#F2C9B1;}
	.st38{clip-path:url(#SVGID_8_);}
	.st39{fill:#F2D7C4;}
	.st40{fill:#5D5660;}
	.st41{fill:#3B2D3F;}
	.st42{fill:#997999;}
	.st43{fill:#170F17;}
	.st44{clip-path:url(#SVGID_10_);}
</style>
<g id="Layer_6">
</g>
<g id="Layer_9">
</g>
<g id="Layer_7">
	<g>
		<g>
			<g>
				<g>
					<g>
						<path class="st7" d="M370.4,319c-1.1-7.2-7.8-12.1-15-11l-38.3,3.6c-7.2,1.1-12.1,7.8-11,15l0,0c1.1,7.2,7.8,12.1,15,11
							l38.3-3.6C366.6,332.9,371.5,326.2,370.4,319L370.4,319z"/>
					</g>
					<path class="st7" d="M214.5,225H152v64h62.5c12.9,0,24.5-9.2,24.5-19.9v-24.8C239,233.4,227.5,225,214.5,225z"/>
					<g>
						<path class="st7" d="M264.9,285.8c6.4-6.5,6.3-17-0.2-23.4l-32.4-33.9c-6.5-6.4-17-6.3-23.4,0.2l0,0c-6.4,6.5-6.3,17,0.2,23.4
							l32.4,33.9C248,292.4,258.5,292.3,264.9,285.8L264.9,285.8z"/>
					</g>
					<g>
						<path class="st7" d="M283.1,317.4c6.5-9.7,4-22.8-5.7-29.4l-48.6-35.1c-9.7-6.5-22.8-4-29.3,5.6l0,0c-6.6,9.7-4,22.8,5.7,29.4
							l48.6,35.1C263.4,329.6,276.5,327.1,283.1,317.4L283.1,317.4z"/>
					</g>
					<path class="st7" d="M323.1,311.6c-1.4,8.6-2.2,17.2-2.9,25.9l-54-6.3c-9.9-1.2-17-10.1-15.9-19.5c1.1-9.4,10.1-16.4,20-15.3
						L323.1,311.6z"/>
					<path class="st8" d="M281,276.1c-3.4,10.5,1.5,21.8,11,25.3l15.2,5.6c-0.8,1.8-1.6,3-2.7,4.2c-5.4,6-14.1,6.7-19.4,1.3
						L256.6,283c-3.4-3.5-4.6-8.6-3.5-13.4C262.3,272.3,271.6,274.5,281,276.1z"/>
					<path class="st7" d="M310.7,290.9c-2.9,7.7-11.5,11.6-19.1,8.7l-41.7-15.7c-7.7-2.9-11.6-11.5-8.7-19.1l0,0
						c2.9-7.7,11.5-11.6,19.1-8.7l41.7,15.7C309.7,274.6,313.5,283.2,310.7,290.9L310.7,290.9z"/>
				</g>
				<rect x="136" y="224" class="st8" width="44" height="64"/>
				<path class="st0" d="M104,311h39.6c12.2,0,22.4-9.9,22.4-22v-68c0-12.2-10.2-22-22.4-22H104V311z"/>
			</g>
			<g>
				<path class="st9" d="M407.4,193.7c-0.2-19.3-16-34.9-35.3-34.7c-15.9,0.1-29.2,10.8-33.3,25.4c-4.4-14.5-17.9-24.9-33.8-24.8
					c-19.3,0.2-34.9,16-34.7,35.3c0.1,10.7,5,20.2,12.6,26.6c0.3,0.4,0.6,0.7,0.9,1.1l40.2,47.8c8.9,10.5,23.2,10.4,31.9-0.3
					l39.4-48.5c0.9-1.1,1.7-2.2,2.3-3.3C403.7,211.9,407.5,203.3,407.4,193.7z"/>
				<g>
					<g>
						<g>
							<path class="st10" d="M303.6,168.7c-12.2,2.5-20.7,12.1-22.2,24.4c-0.6,4.7,6.9,4.7,7.4,0c1.1-9,8.1-15.4,16.8-17.2
								C310.3,174.9,308.3,167.7,303.6,168.7L303.6,168.7z"/>
						</g>
					</g>
				</g>
			</g>
		</g>
	</g>
</g>
</svg>
